<svg xmlns="http://www.w3.org/2000/svg" width="1200" height="594" viewBox="0 0 1200 594">
  <rect width="100%" height="100%" fill="#f8fafc"/>
  <text x="30" y="42" font-family="Arial, sans-serif" font-size="32" font-weight="700" fill="#0f172a">PyC Backend Suite (CPU)</text>
  <text x="30" y="72" font-family="Arial, sans-serif" font-size="14" fill="#334155">run_id=20260218T215837Z_rtx3090_phase4_v2 | host=d9aff3ced886 | git=unknown | dirty=0</text>
  <text x="30" y="134" font-family="Arial, sans-serif" font-size="18" fill="#111">PyTorch Eager</text><rect x="380" y="110" width="484" height="36" fill="#2563eb" rx="6" /><text x="876" y="134" font-family="Arial, sans-serif" font-size="16" fill="#111">93.9434 ms</text><text x="30" y="186" font-family="Arial, sans-serif" font-size="18" fill="#111">PyTorch Compile</text><rect x="380" y="162" width="372" height="36" fill="#2563eb" rx="6" /><text x="764" y="186" font-family="Arial, sans-serif" font-size="16" fill="#111">72.2996 ms</text><text x="30" y="238" font-family="Arial, sans-serif" font-size="18" fill="#111">PyC CUDA</text><rect x="380" y="214" width="136" height="36" fill="#2563eb" rx="6" /><text x="528" y="238" font-family="Arial, sans-serif" font-size="16" fill="#111">26.5426 ms</text><text x="30" y="290" font-family="Arial, sans-serif" font-size="18" fill="#111">TVM</text><rect x="380" y="266" width="760" height="36" fill="#2563eb" rx="6" /><text x="1152" y="290" font-family="Arial, sans-serif" font-size="16" fill="#111">147.4265 ms</text><text x="30" y="342" font-family="Arial, sans-serif" font-size="18" fill="#111">XLA</text><rect x="380" y="318" width="425" height="36" fill="#2563eb" rx="6" /><text x="817" y="342" font-family="Arial, sans-serif" font-size="16" fill="#111">82.5970 ms</text><text x="30" y="394" font-family="Arial, sans-serif" font-size="18" fill="#111">TensorRT</text><rect x="380" y="370" width="297" height="36" fill="#2563eb" rx="6" /><text x="689" y="394" font-family="Arial, sans-serif" font-size="16" fill="#111">57.6706 ms</text><text x="30" y="446" font-family="Arial, sans-serif" font-size="18" fill="#111">Glow</text><rect x="380" y="422" width="476" height="36" fill="#2563eb" rx="6" /><text x="868" y="446" font-family="Arial, sans-serif" font-size="16" fill="#111">92.5143 ms</text>
</svg>
