<svg xmlns="http://www.w3.org/2000/svg" width="1500" height="780" viewBox="0 0 1500 780">
<rect width="100%" height="100%" fill="#f8fafc"/>
<text x="28" y="48" font-family="Arial" font-size="34" font-weight="700" fill="#0f172a">PyC Backend Comparison (Horizontal)</text>
<text x="28" y="76" font-family="Arial" font-size="14" fill="#334155">timestamp=2026-02-17T23:40:05.421133+00:00 | device=cpu | GPU=unavailable</text>
<text x="28" y="100" font-family="Arial" font-size="14" fill="#334155">Y-axis: perf tests (p50/p95/mean latency, throughput). X-axis: metric value. Bars show backend results.</text>
<text x="28" y="172" font-family="Arial" font-size="22" fill="#111827">p50_latency_ms</text>
<rect x="320" y="188" width="1100" height="14" rx="3" fill="#2563eb"/>
<text x="1428" y="200" font-family="Arial" font-size="12" fill="#111827">PyTorch Eager: 92.2615</text>
<rect x="320" y="206" width="1056" height="14" rx="3" fill="#16a34a"/>
<text x="1384" y="218" font-family="Arial" font-size="12" fill="#111827">PyTorch Compile: 88.6281</text>
<text x="28" y="292" font-family="Arial" font-size="22" fill="#111827">p95_latency_ms</text>
<rect x="320" y="308" width="1100" height="14" rx="3" fill="#2563eb"/>
<text x="1428" y="320" font-family="Arial" font-size="12" fill="#111827">PyTorch Eager: 99.3985</text>
<rect x="320" y="326" width="1041" height="14" rx="3" fill="#16a34a"/>
<text x="1369" y="338" font-family="Arial" font-size="12" fill="#111827">PyTorch Compile: 94.1412</text>
<text x="28" y="412" font-family="Arial" font-size="22" fill="#111827">mean_latency_ms</text>
<rect x="320" y="428" width="1100" height="14" rx="3" fill="#2563eb"/>
<text x="1428" y="440" font-family="Arial" font-size="12" fill="#111827">PyTorch Eager: 72.2770</text>
<rect x="320" y="446" width="797" height="14" rx="3" fill="#16a34a"/>
<text x="1125" y="458" font-family="Arial" font-size="12" fill="#111827">PyTorch Compile: 52.3751</text>
<text x="28" y="532" font-family="Arial" font-size="22" fill="#111827">throughput_tokens_per_sec</text>
<rect x="320" y="548" width="797" height="14" rx="3" fill="#2563eb"/>
<text x="1125" y="560" font-family="Arial" font-size="12" fill="#111827">PyTorch Eager: 1813468.0900</text>
<rect x="320" y="566" width="1100" height="14" rx="3" fill="#16a34a"/>
<text x="1428" y="578" font-family="Arial" font-size="12" fill="#111827">PyTorch Compile: 2502562.3200</text>
<text x="28" y="656" font-family="Arial" font-size="16" fill="#0f172a">PyC status:</text>
<text x="130" y="656" font-family="Arial" font-size="16" fill="#b91c1c">unavailable: Set PYC_GPU_BENCH_CMD to a command that outputs benchmark JSON for PyC CUDA path</text>
<text x="28" y="682" font-family="Arial" font-size="14" fill="#334155">Unavailable adapters:</text>
<text x="48" y="700" font-family="Arial" font-size="13" fill="#475569">PyC CUDA: Set PYC_GPU_BENCH_CMD to a command that outputs benchmark JSON for PyC CUDA path</text>
<text x="48" y="718" font-family="Arial" font-size="13" fill="#475569">TVM: Install TVM or set TVM_BENCH_CMD to external benchmark command</text>
<text x="48" y="736" font-family="Arial" font-size="13" fill="#475569">XLA: Install torch_xla or set XLA_BENCH_CMD to external benchmark command</text>
<text x="48" y="754" font-family="Arial" font-size="13" fill="#475569">TensorRT: Install TensorRT python bindings or set TENSORRT_BENCH_CMD</text>
<text x="48" y="772" font-family="Arial" font-size="13" fill="#475569">Glow: Set GLOW_BENCH_CMD to external benchmark command for Glow</text>
</svg>