<svg xmlns="http://www.w3.org/2000/svg" width="1200" height="542" viewBox="0 0 1200 542">
  <rect width="100%" height="100%" fill="#f8fafc"/>
  <text x="30" y="42" font-family="Arial, sans-serif" font-size="32" font-weight="700" fill="#0f172a">PyC Backend Suite (CUDA)</text>
  <text x="30" y="72" font-family="Arial, sans-serif" font-size="14" fill="#334155">run_id=20260218T023355Z_phase4_final | host=90c892d22de7 | git=unknown | dirty=0</text>
  <text x="30" y="134" font-family="Arial, sans-serif" font-size="18" fill="#111">PyTorch Eager</text><rect x="380" y="110" width="3" height="36" fill="#2563eb" rx="6" /><text x="395" y="134" font-family="Arial, sans-serif" font-size="16" fill="#111">0.1154 ms</text><text x="30" y="186" font-family="Arial, sans-serif" font-size="18" fill="#111">PyTorch Compile</text><rect x="380" y="162" width="4" height="36" fill="#2563eb" rx="6" /><text x="396" y="186" font-family="Arial, sans-serif" font-size="16" fill="#111">0.1551 ms</text><text x="30" y="238" font-family="Arial, sans-serif" font-size="18" fill="#111">PyC CUDA</text><rect x="380" y="214" width="760" height="36" fill="#2563eb" rx="6" /><text x="1152" y="238" font-family="Arial, sans-serif" font-size="16" fill="#111">25.5228 ms</text><text x="30" y="290" font-family="Arial, sans-serif" font-size="18" fill="#111">XLA</text><rect x="380" y="266" width="3" height="36" fill="#2563eb" rx="6" /><text x="395" y="290" font-family="Arial, sans-serif" font-size="16" fill="#111">0.1157 ms</text><text x="30" y="342" font-family="Arial, sans-serif" font-size="18" fill="#111">TensorRT</text><rect x="380" y="318" width="4" height="36" fill="#2563eb" rx="6" /><text x="396" y="342" font-family="Arial, sans-serif" font-size="16" fill="#111">0.1598 ms</text><text x="30" y="394" font-family="Arial, sans-serif" font-size="18" fill="#111">Glow</text><rect x="380" y="370" width="3" height="36" fill="#2563eb" rx="6" /><text x="395" y="394" font-family="Arial, sans-serif" font-size="16" fill="#111">0.1314 ms</text>
</svg>
