<svg xmlns="http://www.w3.org/2000/svg" width="1200" height="542" viewBox="0 0 1200 542">
  <rect width="100%" height="100%" fill="#f8fafc"/>
  <text x="30" y="42" font-family="Arial, sans-serif" font-size="32" font-weight="700" fill="#0f172a">PyC Backend Suite (CUDA)</text>
  <text x="30" y="72" font-family="Arial, sans-serif" font-size="14" fill="#334155">run_id=20260218T215532Z_rtx3090_phase4 | host=d9aff3ced886 | git=unknown | dirty=0</text>
  <text x="30" y="134" font-family="Arial, sans-serif" font-size="18" fill="#111">PyTorch Eager</text><rect x="380" y="110" width="98" height="36" fill="#2563eb" rx="6" /><text x="490" y="134" font-family="Arial, sans-serif" font-size="16" fill="#111">0.1600 ms</text><text x="30" y="186" font-family="Arial, sans-serif" font-size="18" fill="#111">PyTorch Compile</text><rect x="380" y="162" width="123" height="36" fill="#2563eb" rx="6" /><text x="515" y="186" font-family="Arial, sans-serif" font-size="16" fill="#111">0.2004 ms</text><text x="30" y="238" font-family="Arial, sans-serif" font-size="18" fill="#111">PyC CUDA</text><rect x="380" y="214" width="760" height="36" fill="#2563eb" rx="6" /><text x="1152" y="238" font-family="Arial, sans-serif" font-size="16" fill="#111">1.2381 ms</text><text x="30" y="290" font-family="Arial, sans-serif" font-size="18" fill="#111">XLA</text><rect x="380" y="266" width="95" height="36" fill="#2563eb" rx="6" /><text x="487" y="290" font-family="Arial, sans-serif" font-size="16" fill="#111">0.1553 ms</text><text x="30" y="342" font-family="Arial, sans-serif" font-size="18" fill="#111">TensorRT</text><rect x="380" y="318" width="133" height="36" fill="#2563eb" rx="6" /><text x="525" y="342" font-family="Arial, sans-serif" font-size="16" fill="#111">0.2172 ms</text><text x="30" y="394" font-family="Arial, sans-serif" font-size="18" fill="#111">Glow</text><rect x="380" y="370" width="164" height="36" fill="#2563eb" rx="6" /><text x="556" y="394" font-family="Arial, sans-serif" font-size="16" fill="#111">0.2673 ms</text>
</svg>
