<svg xmlns="http://www.w3.org/2000/svg" width="1200" height="542" viewBox="0 0 1200 542">
  <rect width="100%" height="100%" fill="#f8fafc"/>
  <text x="30" y="42" font-family="Arial, sans-serif" font-size="32" font-weight="700" fill="#0f172a">PyC Backend Suite (CPU)</text>
  <text x="30" y="72" font-family="Arial, sans-serif" font-size="14" fill="#334155">run_id=20260218T023355Z_phase4_final | host=90c892d22de7 | git=unknown | dirty=0</text>
  <text x="30" y="134" font-family="Arial, sans-serif" font-size="18" fill="#111">PyTorch Eager</text><rect x="380" y="110" width="760" height="36" fill="#2563eb" rx="6" /><text x="1152" y="134" font-family="Arial, sans-serif" font-size="16" fill="#111">36.9971 ms</text><text x="30" y="186" font-family="Arial, sans-serif" font-size="18" fill="#111">PyTorch Compile</text><rect x="380" y="162" width="548" height="36" fill="#2563eb" rx="6" /><text x="940" y="186" font-family="Arial, sans-serif" font-size="16" fill="#111">26.7237 ms</text><text x="30" y="238" font-family="Arial, sans-serif" font-size="18" fill="#111">PyC CUDA</text><rect x="380" y="214" width="493" height="36" fill="#2563eb" rx="6" /><text x="885" y="238" font-family="Arial, sans-serif" font-size="16" fill="#111">24.0459 ms</text><text x="30" y="290" font-family="Arial, sans-serif" font-size="18" fill="#111">XLA</text><rect x="380" y="266" width="621" height="36" fill="#2563eb" rx="6" /><text x="1013" y="290" font-family="Arial, sans-serif" font-size="16" fill="#111">30.2406 ms</text><text x="30" y="342" font-family="Arial, sans-serif" font-size="18" fill="#111">TensorRT</text><rect x="380" y="318" width="501" height="36" fill="#2563eb" rx="6" /><text x="893" y="342" font-family="Arial, sans-serif" font-size="16" fill="#111">24.4121 ms</text><text x="30" y="394" font-family="Arial, sans-serif" font-size="18" fill="#111">Glow</text><rect x="380" y="370" width="715" height="36" fill="#2563eb" rx="6" /><text x="1107" y="394" font-family="Arial, sans-serif" font-size="16" fill="#111">34.8523 ms</text>
</svg>
