<svg xmlns="http://www.w3.org/2000/svg" width="1200" height="542" viewBox="0 0 1200 542">
  <rect width="100%" height="100%" fill="#f8fafc"/>
  <text x="30" y="42" font-family="Arial, sans-serif" font-size="32" font-weight="700" fill="#0f172a">PyC Backend Suite (CPU)</text>
  <text x="30" y="72" font-family="Arial, sans-serif" font-size="14" fill="#334155">run_id=20260218T215532Z_rtx3090_phase4 | host=d9aff3ced886 | git=unknown | dirty=0</text>
  <text x="30" y="134" font-family="Arial, sans-serif" font-size="18" fill="#111">PyTorch Eager</text><rect x="380" y="110" width="739" height="36" fill="#2563eb" rx="6" /><text x="1131" y="134" font-family="Arial, sans-serif" font-size="16" fill="#111">92.4730 ms</text><text x="30" y="186" font-family="Arial, sans-serif" font-size="18" fill="#111">PyTorch Compile</text><rect x="380" y="162" width="550" height="36" fill="#2563eb" rx="6" /><text x="942" y="186" font-family="Arial, sans-serif" font-size="16" fill="#111">68.7586 ms</text><text x="30" y="238" font-family="Arial, sans-serif" font-size="18" fill="#111">PyC CUDA</text><rect x="380" y="214" width="215" height="36" fill="#2563eb" rx="6" /><text x="607" y="238" font-family="Arial, sans-serif" font-size="16" fill="#111">26.9925 ms</text><text x="30" y="290" font-family="Arial, sans-serif" font-size="18" fill="#111">XLA</text><rect x="380" y="266" width="760" height="36" fill="#2563eb" rx="6" /><text x="1152" y="290" font-family="Arial, sans-serif" font-size="16" fill="#111">94.9993 ms</text><text x="30" y="342" font-family="Arial, sans-serif" font-size="18" fill="#111">TensorRT</text><rect x="380" y="318" width="620" height="36" fill="#2563eb" rx="6" /><text x="1012" y="342" font-family="Arial, sans-serif" font-size="16" fill="#111">77.5067 ms</text><text x="30" y="394" font-family="Arial, sans-serif" font-size="18" fill="#111">Glow</text><rect x="380" y="370" width="710" height="36" fill="#2563eb" rx="6" /><text x="1102" y="394" font-family="Arial, sans-serif" font-size="16" fill="#111">88.8221 ms</text>
</svg>
