<svg xmlns="http://www.w3.org/2000/svg" width="1500" height="760" viewBox="0 0 1500 760">
<rect width="100%" height="100%" fill="#f8fafc"/>
<text x="28" y="46" font-family="Arial" font-size="34" font-weight="700" fill="#0f172a">Compiler Comparison (Adapter Commands)</text>
<text x="28" y="74" font-family="Arial" font-size="14" fill="#334155">device=cpu | timestamp=2026-02-17T23:47:21.587686+00:00</text>
<text x="28" y="96" font-family="Arial" font-size="14" fill="#334155">Y-axis: perf tests. X-axis: metric magnitude. Bars: backend values (PyTorch/ PyC command path).</text>
<text x="28" y="158" font-family="Arial" font-size="22" fill="#111827">p50 latency (ms)</text>
<rect x="360" y="174" width="707" height="14" rx="3" fill="#2563eb"/>
<text x="1075" y="186" font-family="Arial" font-size="12" fill="#111827">PyTorch Eager: 95.2503 ms</text>
<rect x="360" y="192" width="681" height="14" rx="3" fill="#16a34a"/>
<text x="1049" y="204" font-family="Arial" font-size="12" fill="#111827">PyTorch Compile: 91.6883 ms</text>
<rect x="360" y="210" width="1050" height="14" rx="3" fill="#ea580c"/>
<text x="1418" y="222" font-family="Arial" font-size="12" fill="#111827">PyC CUDA: 141.2969 ms</text>
<text x="28" y="268" font-family="Arial" font-size="22" fill="#111827">p95 latency (ms)</text>
<rect x="360" y="284" width="714" height="14" rx="3" fill="#2563eb"/>
<text x="1082" y="296" font-family="Arial" font-size="12" fill="#111827">PyTorch Eager: 100.6381 ms</text>
<rect x="360" y="302" width="689" height="14" rx="3" fill="#16a34a"/>
<text x="1057" y="314" font-family="Arial" font-size="12" fill="#111827">PyTorch Compile: 97.0664 ms</text>
<rect x="360" y="320" width="1050" height="14" rx="3" fill="#ea580c"/>
<text x="1418" y="332" font-family="Arial" font-size="12" fill="#111827">PyC CUDA: 147.8048 ms</text>
<text x="28" y="378" font-family="Arial" font-size="22" fill="#111827">mean latency (ms)</text>
<rect x="360" y="394" width="601" height="14" rx="3" fill="#2563eb"/>
<text x="969" y="406" font-family="Arial" font-size="12" fill="#111827">PyTorch Eager: 81.3846 ms</text>
<rect x="360" y="412" width="489" height="14" rx="3" fill="#16a34a"/>
<text x="857" y="424" font-family="Arial" font-size="12" fill="#111827">PyTorch Compile: 66.1312 ms</text>
<rect x="360" y="430" width="1050" height="14" rx="3" fill="#ea580c"/>
<text x="1418" y="442" font-family="Arial" font-size="12" fill="#111827">PyC CUDA: 141.9971 ms</text>
<text x="28" y="488" font-family="Arial" font-size="22" fill="#111827">throughput (tokens/s)</text>
<rect x="360" y="504" width="853" height="14" rx="3" fill="#2563eb"/>
<text x="1221" y="516" font-family="Arial" font-size="12" fill="#111827">PyTorch Eager: 1610525.7400</text>
<rect x="360" y="522" width="1050" height="14" rx="3" fill="#16a34a"/>
<text x="1418" y="534" font-family="Arial" font-size="12" fill="#111827">PyTorch Compile: 1981998.2200</text>
<rect x="360" y="540" width="489" height="14" rx="3" fill="#ea580c"/>
<text x="857" y="552" font-family="Arial" font-size="12" fill="#111827">PyC CUDA: 923060.8300</text>
<text x="28" y="600" font-family="Arial" font-size="16" fill="#0f172a">Unavailable adapters:</text>
<text x="48" y="618" font-family="Arial" font-size="13" fill="#475569">TVM: TVM not installed; install TVM or change TVM_BENCH_CMD</text>
<text x="48" y="636" font-family="Arial" font-size="13" fill="#475569">XLA: torch_xla not installed; install torch_xla or change XLA_BENCH_CMD</text>
<text x="48" y="654" font-family="Arial" font-size="13" fill="#475569">TensorRT: torch_tensorrt not installed; install it or change TENSORRT_BENCH_CMD</text>
<text x="48" y="672" font-family="Arial" font-size="13" fill="#475569">Glow: Glow runtime benchmark integration is not wired in this environment yet</text>
<text x="28" y="696" font-family="Arial" font-size="12" fill="#64748b">Note: PyC adapter currently runs CPU microbench command path; CUDA PyC backend still pending.</text>
</svg>