<svg xmlns="http://www.w3.org/2000/svg" width="1200" height="594" viewBox="0 0 1200 594">
  <rect width="100%" height="100%" fill="#f8fafc"/>
  <text x="30" y="42" font-family="Arial, sans-serif" font-size="32" font-weight="700" fill="#0f172a">PyC Backend Suite (CPU)</text>
  <text x="30" y="72" font-family="Arial, sans-serif" font-size="14" fill="#334155">run_id=20260218T012007Z_host89_v1 | host=90c892d22de7 | git=unknown | dirty=0</text>
  <text x="30" y="134" font-family="Arial, sans-serif" font-size="18" fill="#111">PyTorch Eager</text><rect x="380" y="110" width="199" height="36" fill="#2563eb" rx="6" /><text x="591" y="134" font-family="Arial, sans-serif" font-size="16" fill="#111">36.9792 ms</text><text x="30" y="186" font-family="Arial, sans-serif" font-size="18" fill="#111">PyTorch Compile</text><rect x="380" y="162" width="136" height="36" fill="#2563eb" rx="6" /><text x="528" y="186" font-family="Arial, sans-serif" font-size="16" fill="#111">25.2958 ms</text><text x="30" y="238" font-family="Arial, sans-serif" font-size="18" fill="#111">PyC CUDA</text><rect x="380" y="214" width="760" height="36" fill="#2563eb" rx="6" /><text x="1152" y="238" font-family="Arial, sans-serif" font-size="16" fill="#111">140.8895 ms</text><text x="30" y="290" font-family="Arial, sans-serif" font-size="18" fill="#111">TVM</text><rect x="380" y="266" width="138" height="36" fill="#2563eb" rx="6" /><text x="530" y="290" font-family="Arial, sans-serif" font-size="16" fill="#111">25.6445 ms</text><text x="30" y="342" font-family="Arial, sans-serif" font-size="18" fill="#111">XLA</text><rect x="380" y="318" width="205" height="36" fill="#2563eb" rx="6" /><text x="597" y="342" font-family="Arial, sans-serif" font-size="16" fill="#111">38.1398 ms</text><text x="30" y="394" font-family="Arial, sans-serif" font-size="18" fill="#111">TensorRT</text><rect x="380" y="370" width="175" height="36" fill="#2563eb" rx="6" /><text x="567" y="394" font-family="Arial, sans-serif" font-size="16" fill="#111">32.5161 ms</text><text x="30" y="446" font-family="Arial, sans-serif" font-size="18" fill="#111">Glow</text><rect x="380" y="422" width="191" height="36" fill="#2563eb" rx="6" /><text x="583" y="446" font-family="Arial, sans-serif" font-size="16" fill="#111">35.5197 ms</text>
</svg>
