<svg xmlns="http://www.w3.org/2000/svg" width="1600" height="414" viewBox="0 0 1600 414">
<rect width="100%" height="100%" fill="#0b1020"/>
<text x="360" y="38" fill="#e8ecff" font-size="28" font-family="monospace">PyC Inference Stats (c=4,8 | arena vs compiled+ATEN vs eager)</text>
<text x="360" y="62" fill="#aeb8df" font-size="14" font-family="monospace">Bars: p50, p95, p99 latency (ms). Right labels include memory stability.</text>
<text x="360" y="82" fill="#aeb8df" font-size="14" font-family="monospace">Mode colors: eager=blue, compiled+ATEN=amber, arena=green.</text>
<line x1="360.00" y1="78" x2="360.00" y2="344" stroke="#26314f" stroke-width="1"/>
<text x="360.00" y="366" fill="#9aa7d8" font-size="12" font-family="monospace" text-anchor="middle">0.0 ms</text>
<line x1="584.00" y1="78" x2="584.00" y2="344" stroke="#26314f" stroke-width="1"/>
<text x="584.00" y="366" fill="#9aa7d8" font-size="12" font-family="monospace" text-anchor="middle">2.1 ms</text>
<line x1="808.00" y1="78" x2="808.00" y2="344" stroke="#26314f" stroke-width="1"/>
<text x="808.00" y="366" fill="#9aa7d8" font-size="12" font-family="monospace" text-anchor="middle">4.3 ms</text>
<line x1="1032.00" y1="78" x2="1032.00" y2="344" stroke="#26314f" stroke-width="1"/>
<text x="1032.00" y="366" fill="#9aa7d8" font-size="12" font-family="monospace" text-anchor="middle">6.4 ms</text>
<line x1="1256.00" y1="78" x2="1256.00" y2="344" stroke="#26314f" stroke-width="1"/>
<text x="1256.00" y="366" fill="#9aa7d8" font-size="12" font-family="monospace" text-anchor="middle">8.6 ms</text>
<line x1="1480.00" y1="78" x2="1480.00" y2="344" stroke="#26314f" stroke-width="1"/>
<text x="1480.00" y="366" fill="#9aa7d8" font-size="12" font-family="monospace" text-anchor="middle">10.7 ms</text>
<text x="348" y="102" fill="#d7defc" font-size="13" font-family="monospace" text-anchor="end">arena @ c=4</text>
<line x1="360" y1="96" x2="529.83" y2="96" stroke="#10B981" stroke-width="4"/>
<line x1="360" y1="104" x2="680.56" y2="104" stroke="#10B981" stroke-width="3" opacity="0.82"/>
<line x1="360" y1="112" x2="680.97" y2="112" stroke="#10B981" stroke-width="2" opacity="0.62"/>
<text x="1492" y="104" fill="#d7defc" font-size="12" font-family="monospace">p50=1.62 p95=3.07 p99=3.07 | allocΔ=0 | stable=true</text>
<text x="348" y="136" fill="#d7defc" font-size="13" font-family="monospace" text-anchor="end">compiled_aten @ c=4</text>
<line x1="360" y1="130" x2="586.42" y2="130" stroke="#F59E0B" stroke-width="4"/>
<line x1="360" y1="138" x2="633.74" y2="138" stroke="#F59E0B" stroke-width="3" opacity="0.82"/>
<line x1="360" y1="146" x2="727.93" y2="146" stroke="#F59E0B" stroke-width="2" opacity="0.62"/>
<text x="1492" y="138" fill="#d7defc" font-size="12" font-family="monospace">p50=2.17 p95=2.62 p99=3.52 | allocΔ=2884 | stable=false</text>
<text x="348" y="170" fill="#d7defc" font-size="13" font-family="monospace" text-anchor="end">eager @ c=4</text>
<line x1="360" y1="164" x2="557.50" y2="164" stroke="#3B82F6" stroke-width="4"/>
<line x1="360" y1="172" x2="704.19" y2="172" stroke="#3B82F6" stroke-width="3" opacity="0.82"/>
<line x1="360" y1="180" x2="705.72" y2="180" stroke="#3B82F6" stroke-width="2" opacity="0.62"/>
<text x="1492" y="172" fill="#d7defc" font-size="12" font-family="monospace">p50=1.89 p95=3.29 p99=3.31 | allocΔ=5284 | stable=false</text>
<text x="348" y="204" fill="#d7defc" font-size="13" font-family="monospace" text-anchor="end">arena @ c=8</text>
<line x1="360" y1="198" x2="801.02" y2="198" stroke="#10B981" stroke-width="4"/>
<line x1="360" y1="206" x2="829.26" y2="206" stroke="#10B981" stroke-width="3" opacity="0.82"/>
<line x1="360" y1="214" x2="880.88" y2="214" stroke="#10B981" stroke-width="2" opacity="0.62"/>
<text x="1492" y="206" fill="#d7defc" font-size="12" font-family="monospace">p50=4.22 p95=4.49 p99=4.98 | allocΔ=0 | stable=true</text>
<text x="348" y="238" fill="#d7defc" font-size="13" font-family="monospace" text-anchor="end">compiled_aten @ c=8</text>
<line x1="360" y1="232" x2="795.83" y2="232" stroke="#F59E0B" stroke-width="4"/>
<line x1="360" y1="240" x2="1098.91" y2="240" stroke="#F59E0B" stroke-width="3" opacity="0.82"/>
<line x1="360" y1="248" x2="1378.18" y2="248" stroke="#F59E0B" stroke-width="2" opacity="0.62"/>
<text x="1492" y="240" fill="#d7defc" font-size="12" font-family="monospace">p50=4.17 p95=7.07 p99=9.74 | allocΔ=5768 | stable=false</text>
<text x="348" y="272" fill="#d7defc" font-size="13" font-family="monospace" text-anchor="end">eager @ c=8</text>
<line x1="360" y1="266" x2="794.24" y2="266" stroke="#3B82F6" stroke-width="4"/>
<line x1="360" y1="274" x2="836.80" y2="274" stroke="#3B82F6" stroke-width="3" opacity="0.82"/>
<line x1="360" y1="282" x2="869.60" y2="282" stroke="#3B82F6" stroke-width="2" opacity="0.62"/>
<text x="1492" y="274" fill="#d7defc" font-size="12" font-family="monospace">p50=4.15 p95=4.56 p99=4.88 | allocΔ=10568 | stable=false</text>
<line x1="360" y1="390" x2="430" y2="390" stroke="#ffffff" stroke-width="4"/>
<text x="438" y="394" fill="#d7defc" font-size="12" font-family="monospace">p50</text>
<line x1="510" y1="390" x2="580" y2="390" stroke="#ffffff" stroke-width="3" opacity="0.82"/>
<text x="588" y="394" fill="#d7defc" font-size="12" font-family="monospace">p95</text>
<line x1="660" y1="390" x2="730" y2="390" stroke="#ffffff" stroke-width="2" opacity="0.62"/>
<text x="738" y="394" fill="#d7defc" font-size="12" font-family="monospace">p99</text>
</svg>