<svg xmlns="http://www.w3.org/2000/svg" width="1200" height="594" viewBox="0 0 1200 594">
  <rect width="100%" height="100%" fill="#f8fafc"/>
  <text x="30" y="42" font-family="Arial, sans-serif" font-size="32" font-weight="700" fill="#0f172a">PyC Backend Suite (CPU)</text>
  <text x="30" y="72" font-family="Arial, sans-serif" font-size="14" fill="#334155">run_id=20260218T020115Z_phase_impl_v1 | host=90c892d22de7 | git=c5d8438 | dirty=1</text>
  <text x="30" y="134" font-family="Arial, sans-serif" font-size="18" fill="#111">PyTorch Eager</text><rect x="380" y="110" width="25" height="36" fill="#2563eb" rx="6" /><text x="417" y="134" font-family="Arial, sans-serif" font-size="16" fill="#111">36.7279 ms</text><text x="30" y="186" font-family="Arial, sans-serif" font-size="18" fill="#111">PyTorch Compile</text><rect x="380" y="162" width="17" height="36" fill="#2563eb" rx="6" /><text x="409" y="186" font-family="Arial, sans-serif" font-size="16" fill="#111">25.3152 ms</text><text x="30" y="238" font-family="Arial, sans-serif" font-size="18" fill="#111">PyC CUDA</text><rect x="380" y="214" width="760" height="36" fill="#2563eb" rx="6" /><text x="1152" y="238" font-family="Arial, sans-serif" font-size="16" fill="#111">1080.3870 ms</text><text x="30" y="290" font-family="Arial, sans-serif" font-size="18" fill="#111">TVM</text><rect x="380" y="266" width="44" height="36" fill="#2563eb" rx="6" /><text x="436" y="290" font-family="Arial, sans-serif" font-size="16" fill="#111">63.0860 ms</text><text x="30" y="342" font-family="Arial, sans-serif" font-size="18" fill="#111">XLA</text><rect x="380" y="318" width="27" height="36" fill="#2563eb" rx="6" /><text x="419" y="342" font-family="Arial, sans-serif" font-size="16" fill="#111">39.5868 ms</text><text x="30" y="394" font-family="Arial, sans-serif" font-size="18" fill="#111">TensorRT</text><rect x="380" y="370" width="17" height="36" fill="#2563eb" rx="6" /><text x="409" y="394" font-family="Arial, sans-serif" font-size="16" fill="#111">25.2202 ms</text><text x="30" y="446" font-family="Arial, sans-serif" font-size="18" fill="#111">Glow</text><rect x="380" y="422" width="24" height="36" fill="#2563eb" rx="6" /><text x="416" y="446" font-family="Arial, sans-serif" font-size="16" fill="#111">35.5114 ms</text>
</svg>
