<svg xmlns="http://www.w3.org/2000/svg" width="1200" height="542" viewBox="0 0 1200 542">
  <rect width="100%" height="100%" fill="#f8fafc"/>
  <text x="30" y="42" font-family="Arial, sans-serif" font-size="32" font-weight="700" fill="#0f172a">PyC Backend Suite (CPU)</text>
  <text x="30" y="72" font-family="Arial, sans-serif" font-size="14" fill="#334155">run_id=20260218T014514Z_contracts_profile_v1 | host=90c892d22de7 | git=c5d8438 | dirty=1</text>
  <text x="30" y="134" font-family="Arial, sans-serif" font-size="18" fill="#111">PyTorch Eager</text><rect x="380" y="110" width="760" height="36" fill="#2563eb" rx="6" /><text x="1152" y="134" font-family="Arial, sans-serif" font-size="16" fill="#111">44.2254 ms</text><text x="30" y="186" font-family="Arial, sans-serif" font-size="18" fill="#111">PyTorch Compile</text><rect x="380" y="162" width="429" height="36" fill="#2563eb" rx="6" /><text x="821" y="186" font-family="Arial, sans-serif" font-size="16" fill="#111">25.0023 ms</text><text x="30" y="238" font-family="Arial, sans-serif" font-size="18" fill="#111">TVM</text><rect x="380" y="214" width="436" height="36" fill="#2563eb" rx="6" /><text x="828" y="238" font-family="Arial, sans-serif" font-size="16" fill="#111">25.4081 ms</text><text x="30" y="290" font-family="Arial, sans-serif" font-size="18" fill="#111">XLA</text><rect x="380" y="266" width="567" height="36" fill="#2563eb" rx="6" /><text x="959" y="290" font-family="Arial, sans-serif" font-size="16" fill="#111">33.0030 ms</text><text x="30" y="342" font-family="Arial, sans-serif" font-size="18" fill="#111">TensorRT</text><rect x="380" y="318" width="384" height="36" fill="#2563eb" rx="6" /><text x="776" y="342" font-family="Arial, sans-serif" font-size="16" fill="#111">22.3791 ms</text><text x="30" y="394" font-family="Arial, sans-serif" font-size="18" fill="#111">Glow</text><rect x="380" y="370" width="588" height="36" fill="#2563eb" rx="6" /><text x="980" y="394" font-family="Arial, sans-serif" font-size="16" fill="#111">34.2658 ms</text>
</svg>
